<svg id="SvgjsSvg1148" width="826" height="477" xmlns="http://www.w3.org/2000/svg" version="1.1" xmlns:xlink="http://www.w3.org/1999/xlink" xmlns:svgjs="http://svgjs.com/svgjs"><defs id="SvgjsDefs1149"><marker id="SvgjsMarker1210" markerWidth="16" markerHeight="12" refX="16" refY="6" viewBox="0 0 16 12" orient="auto" markerUnits="userSpaceOnUse" stroke-dasharray="0,0"><path id="SvgjsPath1211" d="M0,2 L14,6 L0,11 L0,2" fill="#323232" stroke="#323232" stroke-width="2"></path></marker><marker id="SvgjsMarker1214" markerWidth="16" markerHeight="12" refX="16" refY="6" viewBox="0 0 16 12" orient="auto" markerUnits="userSpaceOnUse" stroke-dasharray="0,0"><path id="SvgjsPath1215" d="M0,2 L14,6 L0,11 L0,2" fill="#323232" stroke="#323232" stroke-width="2"></path></marker><marker id="SvgjsMarker1218" markerWidth="16" markerHeight="12" refX="16" refY="6" viewBox="0 0 16 12" orient="auto" markerUnits="userSpaceOnUse" stroke-dasharray="0,0"><path id="SvgjsPath1219" d="M0,2 L14,6 L0,11 L0,2" fill="#323232" stroke="#323232" stroke-width="2"></path></marker><marker id="SvgjsMarker1222" markerWidth="16" markerHeight="12" refX="16" refY="6" viewBox="0 0 16 12" orient="auto" markerUnits="userSpaceOnUse" stroke-dasharray="0,0"><path id="SvgjsPath1223" d="M0,2 L14,6 L0,11 L0,2" fill="#323232" stroke="#323232" stroke-width="2"></path></marker><marker id="SvgjsMarker1272" markerWidth="16" markerHeight="12" refX="16" refY="6" viewBox="0 0 16 12" orient="auto" markerUnits="userSpaceOnUse" stroke-dasharray="0,0"><path id="SvgjsPath1273" d="M0,2 L14,6 L0,11 L0,2" fill="#323232" stroke="#323232" stroke-width="2"></path></marker><marker id="SvgjsMarker1276" markerWidth="16" markerHeight="12" refX="16" refY="6" viewBox="0 0 16 12" orient="auto" markerUnits="userSpaceOnUse" stroke-dasharray="0,0"><path id="SvgjsPath1277" d="M0,2 L14,6 L0,11 L0,2" fill="#323232" stroke="#323232" stroke-width="2"></path></marker><marker id="SvgjsMarker1280" markerWidth="16" markerHeight="12" refX="16" refY="6" viewBox="0 0 16 12" orient="auto" markerUnits="userSpaceOnUse" stroke-dasharray="0,0"><path id="SvgjsPath1281" d="M0,2 L14,6 L0,11 L0,2" fill="#323232" stroke="#323232" stroke-width="2"></path></marker><marker id="SvgjsMarker1284" markerWidth="16" markerHeight="12" refX="16" refY="6" viewBox="0 0 16 12" orient="auto" markerUnits="userSpaceOnUse" stroke-dasharray="0,0"><path id="SvgjsPath1285" d="M0,2 L14,6 L0,11 L0,2" fill="#323232" stroke="#323232" stroke-width="2"></path></marker><marker id="SvgjsMarker1288" markerWidth="16" markerHeight="12" refX="16" refY="6" viewBox="0 0 16 12" orient="auto" markerUnits="userSpaceOnUse" stroke-dasharray="0,0"><path id="SvgjsPath1289" d="M0,2 L14,6 L0,11 L0,2" fill="#323232" stroke="#323232" stroke-width="2"></path></marker></defs><g id="SvgjsG1150" transform="translate(25,25)"><path id="SvgjsPath1151" d="M 0 4Q 0 0 4 0L 126 0Q 130 0 130 4L 130 423Q 130 427 126 427L 4 427Q 0 427 0 423Z" stroke-dasharray="3,4" stroke="rgba(50,50,50,1)" stroke-width="2" fill-opacity="1" fill="#ffffff"></path><g id="SvgjsG1152"><text id="SvgjsText1153" font-family="微软雅黑" text-anchor="middle" font-size="13px" width="110px" fill="#323232" font-weight="400" align="middle" anchor="middle" family="微软雅黑" size="13px" weight="400" font-style="" opacity="1" y="195.55" transform="rotate(0)"><tspan id="SvgjsTspan1154" dy="16" x="65"><tspan id="SvgjsTspan1155" style="text-decoration:;">MESSAGE </tspan></tspan><tspan id="SvgjsTspan1156" dy="16" x="65"><tspan id="SvgjsTspan1157" style="text-decoration:;">SOURCE</tspan></tspan></text></g></g><g id="SvgjsG1158" transform="translate(502,25)"><path id="SvgjsPath1159" d="M 0 0L 269 0L 269 207L 0 207Z" stroke-dasharray="3,4" stroke="rgba(50,50,50,1)" stroke-width="2" fill-opacity="1" fill="#ffffff"></path><g id="SvgjsG1160"><text id="SvgjsText1161" font-family="微软雅黑" text-anchor="end" font-size="13px" width="249px" fill="#323232" font-weight="400" align="bottom" anchor="end" family="微软雅黑" size="13px" weight="400" font-style="" opacity="1" y="189.05" transform="rotate(0)"><tspan id="SvgjsTspan1162" dy="16" x="259"><tspan id="SvgjsTspan1163" style="text-decoration:;">FRONTEND</tspan></tspan></text></g></g><g id="SvgjsG1164" transform="translate(502,245)"><path id="SvgjsPath1165" d="M 0 0L 269 0L 269 207L 0 207Z" stroke-dasharray="3,4" stroke="rgba(50,50,50,1)" stroke-width="2" fill-opacity="1" fill="#ffffff"></path><g id="SvgjsG1166"><text id="SvgjsText1167" font-family="微软雅黑" text-anchor="start" font-size="13px" width="249px" fill="#323232" font-weight="400" align="top" anchor="start" family="微软雅黑" size="13px" weight="400" font-style="" opacity="1" y="-1.95" transform="rotate(0)"><tspan id="SvgjsTspan1168" dy="16" x="10"><tspan id="SvgjsTspan1169" style="text-decoration:;">NOTIFIER</tspan></tspan></text></g></g><g id="SvgjsG1170" transform="translate(40,40)"><path id="SvgjsPath1171" d="M 0 4Q 0 0 4 0L 96 0Q 100 0 100 4L 100 66Q 100 70 96 70L 4 70Q 0 70 0 66Z" stroke="rgba(50,50,50,1)" stroke-width="2" fill-opacity="1" fill="#ffffff"></path><g id="SvgjsG1172"><text id="SvgjsText1173" font-family="微软雅黑" text-anchor="middle" font-size="13px" width="80px" fill="#323232" font-weight="400" align="middle" anchor="middle" family="微软雅黑" size="13px" weight="400" font-style="" opacity="1" y="17.05" transform="rotate(0)"><tspan id="SvgjsTspan1174" dy="16" x="50"><tspan id="SvgjsTspan1175" style="text-decoration:;">multicast</tspan></tspan><tspan id="SvgjsTspan1176" dy="16" x="50"><tspan id="SvgjsTspan1177" style="text-decoration:;">client A</tspan></tspan></text></g></g><g id="SvgjsG1178" transform="translate(40,149.33333333333337)"><path id="SvgjsPath1179" d="M 0 4Q 0 0 4 0L 96 0Q 100 0 100 4L 100 66Q 100 70 96 70L 4 70Q 0 70 0 66Z" stroke="rgba(50,50,50,1)" stroke-width="2" fill-opacity="1" fill="#ffffff"></path><g id="SvgjsG1180"><text id="SvgjsText1181" font-family="微软雅黑" text-anchor="middle" font-size="13px" width="80px" fill="#323232" font-weight="400" align="middle" anchor="middle" family="微软雅黑" size="13px" weight="400" font-style="" opacity="1" y="17.05" transform="rotate(0)"><tspan id="SvgjsTspan1182" dy="16" x="50"><tspan id="SvgjsTspan1183" style="text-decoration:;">multicast</tspan></tspan><tspan id="SvgjsTspan1184" dy="16" x="50"><tspan id="SvgjsTspan1185" style="text-decoration:;">client B</tspan></tspan></text></g></g><g id="SvgjsG1186" transform="translate(40,258.66666666666674)"><path id="SvgjsPath1187" d="M 0 4Q 0 0 4 0L 96 0Q 100 0 100 4L 100 66Q 100 70 96 70L 4 70Q 0 70 0 66Z" stroke="rgba(50,50,50,1)" stroke-width="2" fill-opacity="1" fill="#ffffff"></path><g id="SvgjsG1188"><text id="SvgjsText1189" font-family="微软雅黑" text-anchor="middle" font-size="13px" width="80px" fill="#323232" font-weight="400" align="middle" anchor="middle" family="微软雅黑" size="13px" weight="400" font-style="" opacity="1" y="17.05" transform="rotate(0)"><tspan id="SvgjsTspan1190" dy="16" x="50"><tspan id="SvgjsTspan1191" style="text-decoration:;">muticast</tspan></tspan><tspan id="SvgjsTspan1192" dy="16" x="50"><tspan id="SvgjsTspan1193" style="text-decoration:;">client C</tspan></tspan></text></g></g><g id="SvgjsG1194" transform="translate(40,368.0000000000001)"><path id="SvgjsPath1195" d="M 0 4Q 0 0 4 0L 96 0Q 100 0 100 4L 100 66Q 100 70 96 70L 4 70Q 0 70 0 66Z" stroke="rgba(50,50,50,1)" stroke-width="2" fill-opacity="1" fill="#ffffff"></path><g id="SvgjsG1196"><text id="SvgjsText1197" font-family="微软雅黑" text-anchor="middle" font-size="13px" width="80px" fill="#323232" font-weight="400" align="middle" anchor="middle" family="微软雅黑" size="13px" weight="400" font-style="" opacity="1" y="17.05" transform="rotate(0)"><tspan id="SvgjsTspan1198" dy="16" x="50"><tspan id="SvgjsTspan1199" style="text-decoration:;">multicast</tspan></tspan><tspan id="SvgjsTspan1200" dy="16" x="50"><tspan id="SvgjsTspan1201" style="text-decoration:;">client D</tspan></tspan></text></g></g><g id="SvgjsG1202" transform="translate(234,368.0000000000001)"><path id="SvgjsPath1203" d="M 0 4Q 0 0 4 0L 96 0Q 100 0 100 4L 100 66Q 100 70 96 70L 4 70Q 0 70 0 66Z" stroke="rgba(50,50,50,1)" stroke-width="2" fill-opacity="1" fill="#ffffff"></path><g id="SvgjsG1204"><text id="SvgjsText1205" font-family="微软雅黑" text-anchor="middle" font-size="13px" width="80px" fill="#323232" font-weight="400" align="middle" anchor="middle" family="微软雅黑" size="13px" weight="400" font-style="" opacity="1" y="25.05" transform="rotate(0)"><tspan id="SvgjsTspan1206" dy="16" x="50"><tspan id="SvgjsTspan1207" style="text-decoration:;">COLLECTOR</tspan></tspan></text></g></g><g id="SvgjsG1208"><path id="SvgjsPath1209" d="M140 403.0000000000001L187 403.0000000000001L187 403.0000000000001L234 403.0000000000001" stroke="#323232" stroke-width="2" fill="none" marker-end="url(#SvgjsMarker1210)"></path></g><g id="SvgjsG1212"><path id="SvgjsPath1213" d="M140 293.66666666666674L284 293.66666666666674L284 368.0000000000001" stroke="#323232" stroke-width="2" fill="none" marker-end="url(#SvgjsMarker1214)"></path></g><g id="SvgjsG1216"><path id="SvgjsPath1217" d="M140 184.33333333333337L284 184.33333333333337L284 368.0000000000001" stroke="#323232" stroke-width="2" fill="none" marker-end="url(#SvgjsMarker1218)"></path></g><g id="SvgjsG1220"><path id="SvgjsPath1221" d="M140 75L284 75L284 368.0000000000001" stroke="#323232" stroke-width="2" fill="none" marker-end="url(#SvgjsMarker1222)"></path></g><g id="SvgjsG1224" transform="translate(517,368.0000000000001)"><path id="SvgjsPath1225" d="M 0 0L 100 0L 100 70L 0 70Z" stroke="rgba(50,50,50,1)" stroke-width="2" fill-opacity="1" fill="#ffffff"></path><g id="SvgjsG1226"><text id="SvgjsText1227" font-family="微软雅黑" text-anchor="middle" font-size="13px" width="80px" fill="#323232" font-weight="400" align="middle" anchor="middle" family="微软雅黑" size="13px" weight="400" font-style="" opacity="1" y="17.05" transform="rotate(0)"><tspan id="SvgjsTspan1228" dy="16" x="50"><tspan id="SvgjsTspan1229" style="text-decoration:;">tcp</tspan></tspan><tspan id="SvgjsTspan1230" dy="16" x="50"><tspan id="SvgjsTspan1231" style="text-decoration:;">server</tspan></tspan></text></g></g><g id="SvgjsG1232" transform="translate(373,368.0000000000001)"><path id="SvgjsPath1233" d="M 0 4Q 0 0 4 0L 96 0Q 100 0 100 4L 100 66Q 100 70 96 70L 4 70Q 0 70 0 66Z" stroke="rgba(50,50,50,1)" stroke-width="2" fill-opacity="1" fill="#ffffff"></path><g id="SvgjsG1234"><text id="SvgjsText1235" font-family="微软雅黑" text-anchor="middle" font-size="13px" width="80px" fill="#323232" font-weight="400" align="middle" anchor="middle" family="微软雅黑" size="13px" weight="400" font-style="" opacity="1" y="25.05" transform="rotate(0)"><tspan id="SvgjsTspan1236" dy="16" x="50"><tspan id="SvgjsTspan1237" style="text-decoration:;">encode</tspan></tspan></text></g></g><g id="SvgjsG1238" transform="translate(657,368.0000000000001)"><path id="SvgjsPath1239" d="M 0 4Q 0 0 4 0L 96 0Q 100 0 100 4L 100 66Q 100 70 96 70L 4 70Q 0 70 0 66Z" stroke="rgba(50,50,50,1)" stroke-width="2" fill-opacity="1" fill="#ffffff"></path><g id="SvgjsG1240"><text id="SvgjsText1241" font-family="微软雅黑" text-anchor="middle" font-size="13px" width="80px" fill="#323232" font-weight="400" align="middle" anchor="middle" family="微软雅黑" size="13px" weight="400" font-style="" opacity="1" y="25.05" transform="rotate(0)"><tspan id="SvgjsTspan1242" dy="16" x="50"><tspan id="SvgjsTspan1243" style="text-decoration:;">decode</tspan></tspan></text></g></g><g id="SvgjsG1244" transform="translate(657,258.66666666666674)"><path id="SvgjsPath1245" d="M 0 4Q 0 0 4 0L 96 0Q 100 0 100 4L 100 66Q 100 70 96 70L 4 70Q 0 70 0 66Z" stroke="rgba(50,50,50,1)" stroke-width="2" fill-opacity="1" fill="#ffffff"></path><g id="SvgjsG1246"><text id="SvgjsText1247" font-family="微软雅黑" text-anchor="middle" font-size="13px" width="80px" fill="#323232" font-weight="400" align="middle" anchor="middle" family="微软雅黑" size="13px" weight="400" font-style="" opacity="1" y="17.05" transform="rotate(0)"><tspan id="SvgjsTspan1248" dy="16" x="50"><tspan id="SvgjsTspan1249" style="text-decoration:;">websocket</tspan></tspan><tspan id="SvgjsTspan1250" dy="16" x="50"><tspan id="SvgjsTspan1251" style="text-decoration:;">server</tspan></tspan></text></g></g><g id="SvgjsG1252" transform="translate(657,40)"><path id="SvgjsPath1253" d="M 0 4Q 0 0 4 0L 96 0Q 100 0 100 4L 100 66Q 100 70 96 70L 4 70Q 0 70 0 66Z" stroke="rgba(50,50,50,1)" stroke-width="2" fill-opacity="1" fill="#ffffff"></path><g id="SvgjsG1254"><text id="SvgjsText1255" font-family="微软雅黑" text-anchor="middle" font-size="13px" width="80px" fill="#323232" font-weight="400" align="middle" anchor="middle" family="微软雅黑" size="13px" weight="400" font-style="" opacity="1" y="25.05" transform="rotate(0)"><tspan id="SvgjsTspan1256" dy="16" x="50"><tspan id="SvgjsTspan1257" style="text-decoration:;">brower B</tspan></tspan></text></g></g><g id="SvgjsG1258" transform="translate(517,149.33333333333337)"><path id="SvgjsPath1259" d="M 0 4Q 0 0 4 0L 96 0Q 100 0 100 4L 100 66Q 100 70 96 70L 4 70Q 0 70 0 66Z" stroke="rgba(50,50,50,1)" stroke-width="2" fill-opacity="1" fill="#ffffff"></path><g id="SvgjsG1260"><text id="SvgjsText1261" font-family="微软雅黑" text-anchor="middle" font-size="13px" width="80px" fill="#323232" font-weight="400" align="middle" anchor="middle" family="微软雅黑" size="13px" weight="400" font-style="" opacity="1" y="25.05" transform="rotate(0)"><tspan id="SvgjsTspan1262" dy="16" x="50"><tspan id="SvgjsTspan1263" style="text-decoration:;">brower C</tspan></tspan></text></g></g><g id="SvgjsG1264" transform="translate(517,40)"><path id="SvgjsPath1265" d="M 0 4Q 0 0 4 0L 96 0Q 100 0 100 4L 100 66Q 100 70 96 70L 4 70Q 0 70 0 66Z" stroke="rgba(50,50,50,1)" stroke-width="2" fill-opacity="1" fill="#ffffff"></path><g id="SvgjsG1266"><text id="SvgjsText1267" font-family="微软雅黑" text-anchor="middle" font-size="13px" width="80px" fill="#323232" font-weight="400" align="middle" anchor="middle" family="微软雅黑" size="13px" weight="400" font-style="" opacity="1" y="25.05" transform="rotate(0)"><tspan id="SvgjsTspan1268" dy="16" x="50"><tspan id="SvgjsTspan1269" style="text-decoration:;">brower A</tspan></tspan></text></g></g><g id="SvgjsG1270"><path id="SvgjsPath1271" d="M757 293.66666666666674L801 293.66666666666674L801 128.5L771 128.5" stroke="#323232" stroke-width="2" fill="none" marker-end="url(#SvgjsMarker1272)"></path></g><g id="SvgjsG1274"><path id="SvgjsPath1275" d="M334 403.0000000000001L353.5 403.0000000000001L353.5 403.0000000000001L373 403.0000000000001" stroke="#323232" stroke-width="2" fill="none" marker-end="url(#SvgjsMarker1276)"></path></g><g id="SvgjsG1278"><path id="SvgjsPath1279" d="M473 403.0000000000001L495 403.0000000000001L495 403.0000000000001L517 403.0000000000001" stroke="#323232" stroke-width="2" fill="none" marker-end="url(#SvgjsMarker1280)"></path></g><g id="SvgjsG1282"><path id="SvgjsPath1283" d="M617 403.0000000000001L637 403.0000000000001L637 403.0000000000001L657 403.0000000000001" stroke="#323232" stroke-width="2" fill="none" marker-end="url(#SvgjsMarker1284)"></path></g><g id="SvgjsG1286"><path id="SvgjsPath1287" d="M707 368.0000000000001L707 348.3333333333335L707 348.3333333333335L707 328.66666666666674" stroke="#323232" stroke-width="2" fill="none" marker-end="url(#SvgjsMarker1288)"></path></g></svg>